<?xml version="1.0" standalone="no"?>
<!DOCTYPE svg PUBLIC "-//W3C//DTD SVG 20010904//EN"
 "http://www.w3.org/TR/2001/REC-SVG-20010904/DTD/svg10.dtd">
<svg version="1.0" xmlns="http://www.w3.org/2000/svg"
 width="1120.000000pt" height="1120.000000pt" viewBox="0 0 1120.000000 1120.000000"
 preserveAspectRatio="xMidYMid meet">
<metadata>
Created by potrace 1.14, written by Peter Selinger 2001-2017
</metadata>
<g transform="translate(0.000000,1120.000000) scale(0.100000,-0.100000)"
fill="#000000" stroke="none">
<path d="M3287 8044 c-1 -1 -60 -5 -132 -8 -71 -3 -148 -8 -170 -11 -22 -2
-83 -9 -135 -15 -52 -6 -120 -14 -152 -17 -31 -2 -116 -16 -190 -29 -73 -13
-150 -26 -170 -29 -59 -9 -255 -69 -343 -105 -272 -110 -472 -231 -629 -379
-96 -91 -113 -143 -62 -190 25 -23 111 -59 136 -56 8 1 20 3 27 3 28 4 -4 40
-60 67 -95 46 -92 54 68 188 122 102 273 184 555 300 140 58 351 115 525 141
91 13 175 27 215 36 25 5 78 11 118 14 40 3 89 8 110 11 20 3 55 8 77 11 22 3
102 8 177 11 280 11 494 -62 472 -161 -3 -17 -18 -51 -32 -75 -25 -42 -177
-211 -217 -241 -11 -8 -38 -31 -60 -51 -22 -20 -64 -59 -94 -85 -30 -27 -67
-60 -82 -74 -15 -14 -44 -38 -65 -55 -21 -16 -42 -35 -48 -40 -6 -6 -47 -40
-91 -75 -103 -84 -125 -106 -117 -116 4 -4 2 -4 -5 -1 -6 4 -18 0 -26 -8 -9
-8 -20 -15 -24 -15 -13 0 -53 -48 -53 -63 0 -8 -4 -7 -10 3 -9 13 -14 7 -11
-12 0 -4 -5 -5 -13 -2 -7 3 -22 -6 -32 -19 -11 -13 -40 -37 -64 -52 -25 -15
-54 -38 -65 -50 -27 -28 -103 -87 -142 -110 -18 -10 -30 -22 -27 -27 3 -4 -2
-8 -11 -8 -8 0 -18 -7 -21 -15 -4 -8 -12 -15 -20 -15 -8 0 -19 -9 -26 -20 -7
-11 -18 -20 -25 -20 -7 0 -13 -4 -13 -10 0 -5 -5 -10 -11 -10 -13 0 -169 -120
-169 -130 0 -4 -13 -13 -29 -20 -16 -6 -32 -18 -34 -24 -3 -7 -27 -26 -54 -41
-26 -15 -67 -45 -91 -67 -23 -21 -54 -43 -68 -48 -15 -6 -22 -14 -18 -22 4 -6
3 -8 -4 -4 -6 3 -17 -2 -24 -11 -7 -10 -19 -19 -27 -21 -7 -1 -19 -8 -26 -15
-7 -7 -31 -23 -53 -37 -23 -14 -42 -31 -42 -38 0 -7 -4 -11 -9 -7 -5 3 -17 -3
-27 -12 -10 -10 -20 -18 -23 -18 -3 0 -33 -18 -65 -40 -32 -22 -73 -49 -90
-60 -17 -10 -35 -24 -41 -30 -5 -6 -27 -22 -47 -36 -21 -13 -38 -28 -38 -32 0
-5 -3 -6 -8 -3 -4 2 -25 -9 -47 -25 -22 -15 -56 -38 -75 -49 -19 -11 -55 -34
-80 -50 -25 -16 -62 -39 -83 -50 -20 -11 -37 -25 -37 -30 0 -6 -3 -9 -7 -8 -9
2 -95 -41 -103 -52 -3 -3 -24 -17 -47 -30 -23 -13 -39 -28 -36 -33 3 -6 1 -7
-4 -4 -6 4 -39 -9 -73 -28 -34 -19 -73 -38 -87 -41 -21 -6 -23 -3 -19 17 13
74 30 121 61 182 8 16 15 35 15 43 0 8 5 14 10 14 6 0 10 9 10 19 0 11 5 23
10 26 16 10 12 28 -5 21 -13 -4 -14 -2 -5 14 6 11 13 20 16 20 3 0 2 -4 -1
-10 -3 -6 1 -7 10 -4 9 4 13 9 11 12 -3 3 2 11 12 19 9 8 11 12 5 8 -7 -3 -13
-1 -13 6 0 8 -6 6 -18 -4 -10 -10 -24 -17 -31 -17 -8 0 -11 -6 -7 -16 3 -8 2
-12 -4 -9 -9 6 -21 -5 -75 -67 -81 -95 -127 -160 -166 -234 -20 -40 -24 -56
-16 -70 9 -17 9 -17 -6 -5 -18 14 -17 16 -22 -51 0 -9 -4 -20 -8 -24 -4 -4 1
-13 11 -21 9 -8 11 -12 4 -8 -15 8 -15 -6 -1 -39 7 -14 15 -23 20 -21 4 3 10
-4 14 -15 4 -11 10 -18 15 -15 4 3 13 -2 20 -10 13 -15 90 -21 104 -8 3 4 17
8 29 10 12 2 38 14 58 28 20 13 53 31 73 39 20 8 39 22 42 31 3 8 12 15 19 15
7 0 35 17 62 38 26 21 75 56 108 78 33 21 62 42 63 47 2 4 9 7 15 7 7 0 30 16
52 35 49 43 51 44 101 72 21 12 38 26 37 31 -1 6 9 13 23 16 14 4 22 11 19 16
-3 6 3 10 15 10 11 0 23 7 26 15 4 8 12 15 19 15 7 0 18 7 25 15 7 9 28 23 46
31 19 9 34 20 34 25 0 5 6 9 13 9 6 0 29 16 49 35 21 20 41 36 45 35 13 0 93
61 93 71 0 6 5 7 10 4 6 -3 13 1 16 9 3 9 13 16 21 16 8 0 27 13 41 28 15 16
35 31 45 35 10 4 15 11 12 17 -3 5 0 8 7 5 7 -3 33 13 57 34 25 22 48 38 53
35 4 -3 13 4 20 16 7 11 16 20 20 20 11 0 54 43 51 51 -1 4 8 4 20 1 12 -3 19
-1 15 3 -4 4 22 27 57 50 36 23 63 44 60 46 -2 3 22 22 54 42 32 21 80 58 107
83 72 66 90 81 118 99 14 10 24 21 21 25 -3 4 5 11 18 14 12 3 48 31 80 61 32
30 62 55 67 55 4 0 20 16 36 35 15 19 32 35 38 35 17 0 118 99 120 117 2 9 12
17 24 18 12 1 34 13 49 26 14 13 39 35 54 49 16 14 43 39 61 55 19 17 36 30
39 30 16 0 108 89 102 98 -4 6 0 8 10 4 9 -3 17 -3 19 1 2 4 30 29 63 56 33
27 68 58 78 69 10 12 33 31 50 44 63 46 187 167 187 182 0 8 3 12 6 8 7 -7 43
28 95 93 104 131 134 208 110 278 -8 20 -23 48 -35 60 -25 28 -107 72 -134 72
-10 0 -22 4 -28 10 -13 13 -285 45 -297 34z m-163 -926 c-5 -8 -1 -9 12 -4 14
5 16 4 7 -5 -13 -13 -37 -3 -28 12 4 5 8 9 11 9 3 0 2 -5 -2 -12z"/>
<path d="M9375 7906 c-184 -61 -263 -95 -426 -184 -124 -67 -263 -151 -330
-199 -26 -18 -49 -33 -53 -33 -18 0 -295 -203 -365 -267 -20 -18 -39 -33 -43
-33 -9 0 -111 -127 -127 -158 -17 -33 -24 -61 -23 -105 0 -74 79 -128 212
-147 68 -10 599 -14 665 -6 17 2 147 7 290 10 143 4 307 9 365 11 58 3 186 7
285 10 99 4 203 8 230 10 302 25 616 25 701 0 30 -8 54 -20 54 -25 0 -12 -71
-72 -117 -96 -21 -12 -99 -54 -173 -94 -74 -40 -136 -77 -138 -82 -2 -4 -9 -8
-16 -8 -7 0 -71 -29 -142 -64 -71 -35 -139 -67 -151 -70 -13 -4 -23 -12 -23
-17 0 -5 -3 -8 -7 -7 -5 1 -19 -4 -33 -9 -61 -26 -121 -54 -205 -93 -49 -23
-124 -58 -165 -77 -41 -20 -77 -38 -80 -42 -3 -4 -16 -8 -29 -8 -13 -1 -31 -8
-40 -17 -9 -8 -35 -19 -58 -25 -24 -7 -43 -16 -43 -21 0 -6 -6 -10 -14 -10
-12 0 -51 -15 -151 -60 -22 -10 -58 -24 -80 -33 -40 -15 -168 -73 -235 -105
-19 -9 -38 -21 -42 -27 -4 -5 -8 -6 -8 -2 0 4 -20 -4 -45 -19 -25 -14 -45 -23
-45 -20 0 7 -65 -23 -110 -50 -19 -12 -52 -25 -72 -28 -22 -4 -45 -17 -57 -32
-11 -14 -25 -23 -31 -19 -6 4 -18 1 -26 -6 -8 -6 -17 -9 -21 -6 -6 7 -56 -18
-87 -43 -10 -8 -20 -14 -22 -12 -11 7 -34 0 -48 -14 -10 -9 -16 -11 -16 -4 0
7 -6 5 -16 -4 -8 -9 -20 -16 -25 -16 -6 0 -8 -4 -5 -8 2 -4 -7 -7 -22 -6 -14
0 -35 -8 -46 -18 -11 -10 -30 -18 -43 -18 -13 0 -23 -4 -23 -9 0 -5 -13 -12
-30 -16 -16 -4 -30 -11 -30 -15 0 -5 -6 -7 -14 -4 -8 3 -17 1 -21 -5 -3 -6
-13 -11 -21 -11 -8 0 -45 -14 -82 -32 -37 -17 -69 -32 -72 -32 -35 -8 -118
-51 -113 -59 4 -6 0 -8 -11 -4 -10 4 -19 1 -22 -6 -2 -7 -18 -12 -34 -11 -17
1 -30 -3 -30 -9 0 -6 -3 -8 -6 -4 -7 6 -39 -22 -39 -34 0 -4 -4 -11 -9 -16 -5
-5 -6 -3 -2 5 5 8 -1 12 -19 12 -15 0 -24 -4 -20 -10 4 -7 -3 -9 -20 -6 -18 3
-33 -2 -46 -15 -11 -11 -29 -21 -40 -22 -10 -1 -19 -5 -19 -9 0 -4 -6 -5 -13
-2 -7 2 -26 -2 -42 -10 -16 -8 -32 -13 -37 -10 -4 3 -8 2 -8 -3 0 -10 -45 -31
-88 -39 -17 -4 -32 -10 -32 -15 0 -5 -11 -9 -25 -9 -14 0 -33 -8 -43 -18 -10
-10 -24 -16 -32 -14 -7 3 -10 0 -6 -6 4 -6 -1 -11 -11 -11 -39 -1 -53 -5 -53
-13 0 -5 -4 -7 -9 -4 -5 3 -25 -5 -44 -18 -19 -13 -38 -22 -41 -18 -3 3 -6 -1
-6 -8 0 -7 -3 -10 -6 -7 -4 3 -15 2 -26 -4 -11 -6 -29 -12 -41 -15 -12 -2 -23
-8 -25 -14 -2 -6 -8 -7 -14 -4 -5 3 -24 -9 -41 -28 -26 -28 -35 -33 -49 -25
-12 8 -33 3 -84 -20 -38 -17 -68 -36 -67 -42 2 -6 -4 -8 -13 -4 -13 5 -15 2
-10 -14 6 -18 3 -20 -24 -18 -24 2 -34 -2 -40 -19 -8 -20 -9 -20 -10 -1 -1 19
-2 18 -10 -3 -5 -12 -7 -30 -4 -40 5 -14 4 -15 -5 -2 -9 13 -11 13 -11 0 0 -8
10 -21 23 -29 20 -13 21 -13 9 2 -10 11 -10 17 -1 22 6 4 15 2 19 -5 6 -10 9
-9 13 1 4 12 7 11 16 -1 9 -12 11 -10 12 10 0 22 1 23 8 6 5 -14 10 -16 15 -8
4 7 12 10 17 7 5 -4 9 -1 9 5 0 6 4 9 9 6 5 -3 14 1 21 9 10 12 16 13 26 4 12
-10 17 -6 16 11 0 3 13 7 30 8 17 2 37 10 43 19 8 10 17 13 26 8 11 -7 11 -5
-1 10 -14 17 -14 18 7 7 27 -15 49 -7 56 19 3 11 14 19 27 19 14 0 19 -4 14
-12 -6 -10 -5 -10 8 -1 8 7 18 10 21 6 4 -3 7 -1 7 5 0 7 10 12 23 12 14 0 27
9 33 23 6 12 9 16 7 10 -3 -15 43 -18 52 -3 3 5 12 7 20 3 8 -3 15 0 15 7 0 6
5 8 10 5 6 -3 10 -2 10 4 0 5 9 13 20 16 11 3 20 13 20 22 0 10 5 13 18 8 29
-11 34 -11 39 5 3 12 2 12 -5 2 -7 -10 -11 -10 -22 3 -11 13 -10 15 2 10 9 -4
23 1 32 11 16 15 16 14 12 -11 -5 -25 -4 -26 12 -13 21 19 84 50 77 38 -3 -4
6 -3 19 3 13 7 23 14 21 17 -2 3 4 6 13 7 43 5 82 16 83 24 1 5 3 14 4 19 1 6
3 13 4 17 0 4 6 2 13 -5 8 -8 20 -7 46 3 19 8 38 12 43 9 5 -3 9 0 9 6 0 7 7
9 16 6 11 -4 15 0 14 17 -3 35 -1 39 14 25 8 -7 12 -16 9 -20 -2 -5 1 -8 6 -8
11 0 14 11 9 28 -2 4 -6 6 -10 5 -5 -2 -8 2 -8 8 0 6 6 9 14 6 7 -3 19 0 25 6
9 9 11 7 6 -8 -6 -19 -6 -19 8 -2 15 18 57 24 57 7 0 -5 7 -7 15 -4 8 4 13 10
10 14 -3 4 3 14 12 21 14 12 16 12 9 -1 -4 -8 0 -6 8 4 9 11 16 15 16 9 0 -6
8 -10 18 -8 9 2 23 4 30 4 6 1 12 8 12 17 0 8 5 12 10 9 6 -4 7 -12 4 -18 -3
-7 5 1 20 17 15 17 31 26 41 23 10 -4 15 0 16 11 0 11 2 12 6 4 4 -10 8 -10
19 -1 8 7 25 13 37 13 27 2 87 26 87 36 0 3 6 7 13 7 6 0 34 10 62 23 27 12
56 23 63 24 8 2 20 10 27 19 6 9 21 15 32 14 12 0 36 6 55 15 18 9 48 22 66
28 17 7 32 17 32 22 0 5 5 6 10 3 6 -3 10 -1 10 5 0 6 5 8 10 5 6 -3 10 -2 10
4 0 5 9 8 19 6 23 -4 64 28 53 41 -4 4 1 2 11 -5 12 -10 17 -10 17 -2 0 7 5 9
10 6 6 -3 10 -1 10 5 0 7 7 10 15 6 8 -3 15 -1 15 5 0 6 5 7 10 4 6 -3 42 10
81 29 40 20 83 36 96 36 13 0 22 4 19 8 -2 4 23 18 57 31 76 29 126 50 149 62
10 5 27 9 38 9 11 0 20 4 20 9 0 5 14 12 30 16 17 4 30 11 30 16 0 5 9 9 20 9
11 0 20 4 20 9 0 5 11 9 24 9 14 0 32 7 41 16 9 9 21 16 26 16 18 0 99 40 99
49 0 5 15 13 33 16 17 4 39 13 47 20 14 12 42 23 65 26 6 1 22 10 37 20 14 10
36 19 47 19 12 0 21 4 21 9 0 4 25 16 55 26 31 9 61 22 68 29 7 6 19 12 27 14
8 2 17 7 20 11 3 5 12 8 21 8 9 0 51 16 93 36 41 21 78 37 82 37 3 0 20 10 37
22 18 13 34 23 37 23 3 1 14 6 25 12 11 6 22 11 25 11 21 2 226 100 380 183
52 28 117 62 144 76 27 13 73 42 102 64 29 21 56 39 59 39 4 0 12 6 20 13 7 6
25 21 39 31 34 25 86 109 81 132 -2 11 -4 25 -4 31 -2 24 -62 71 -109 84 -31
9 -106 14 -217 14 -172 0 -597 -13 -625 -20 -8 -2 -166 -7 -350 -11 -184 -3
-353 -8 -375 -9 -22 -2 -197 -5 -390 -8 -490 -7 -677 8 -738 62 -51 44 63 204
246 345 56 43 81 65 133 113 13 12 24 19 24 16 0 -4 10 2 23 13 12 11 39 28
59 38 20 10 46 27 57 37 11 11 24 19 28 19 16 1 133 77 128 83 -3 4 -2 5 2 2
3 -3 25 6 47 19 117 68 138 79 261 136 93 43 111 49 255 97 163 54 246 62 281
26 l22 -22 -30 -68 c-41 -92 -44 -101 -37 -129 9 -35 39 -31 53 9 11 29 22 51
69 141 34 66 7 125 -68 150 -76 25 -132 19 -275 -28z m-995 -2400 c-7 -7 -13
-7 -20 0 -6 6 -3 10 10 10 13 0 16 -4 10 -10z m-1460 -616 c0 -5 -5 -10 -11
-10 -5 0 -7 5 -4 10 3 6 8 10 11 10 2 0 4 -4 4 -10z m-136 -55 c-4 -8 -11 -15
-16 -15 -6 0 -5 6 2 15 7 8 14 15 16 15 2 0 1 -7 -2 -15z m-234 -73 c0 -11 -3
-12 -13 -3 -8 6 -16 8 -19 5 -3 -3 -8 -1 -11 3 -3 5 5 9 19 9 14 0 24 -6 24
-14z m40 2 c0 -2 -7 -4 -15 -4 -8 0 -15 4 -15 10 0 5 7 7 15 4 8 -4 15 -8 15
-10z"/>
<path d="M3688 6628 c-8 -19 14 -90 62 -203 96 -225 149 -626 116 -875 -5 -40
-42 -159 -57 -185 -4 -5 -9 -23 -13 -39 -6 -26 -5 -28 8 -17 9 8 16 20 16 28
0 7 6 24 14 36 8 12 25 60 38 107 21 78 23 104 22 330 0 314 -18 425 -101 635
-20 50 -44 113 -54 140 -17 49 -42 69 -51 43z"/>
<path d="M808 5893 c7 -3 16 -2 19 1 4 3 -2 6 -13 5 -11 0 -14 -3 -6 -6z"/>
<path d="M3757 5255 c-9 -19 -13 -35 -8 -35 7 0 15 14 39 63 2 4 0 7 -5 7 -5
0 -17 -16 -26 -35z"/>
<path d="M3720 5184 c0 -8 5 -12 10 -9 6 4 8 11 5 16 -9 14 -15 11 -15 -7z"/>
<path d="M7630 5176 c0 -2 7 -6 15 -10 8 -3 15 -1 15 4 0 6 -7 10 -15 10 -8 0
-15 -2 -15 -4z"/>
<path d="M3695 5149 c-4 -6 -5 -12 -2 -15 2 -3 7 2 10 11 7 17 1 20 -8 4z"/>
<path d="M3593 5020 c-25 -31 -28 -40 -13 -40 6 0 14 8 17 18 4 9 13 22 21 28
8 6 11 13 6 16 -5 3 -19 -7 -31 -22z"/>
<path d="M3410 4800 c0 -7 -3 -11 -6 -8 -3 3 -17 -5 -30 -19 -17 -17 -22 -29
-16 -35 7 -7 14 -2 23 13 7 13 19 29 28 36 9 6 13 15 8 19 -4 4 -7 1 -7 -6z"/>
<path d="M6413 4777 c-13 -5 -25 -18 -28 -27 -4 -13 -12 -16 -27 -12 -15 3
-19 2 -14 -7 4 -6 12 -9 17 -6 5 4 9 1 9 -4 0 -6 -5 -11 -11 -11 -5 0 -7 -4
-4 -10 10 -16 25 -12 25 8 0 14 2 14 9 3 5 -8 17 -16 25 -17 9 -1 14 2 10 7
-3 5 -9 7 -13 4 -5 -2 1 14 12 36 22 45 21 51 -10 36z"/>
<path d="M3293 4699 c-7 -7 -13 -19 -13 -25 0 -7 -8 -15 -19 -19 -27 -8 -55
-41 -41 -50 15 -9 92 70 88 90 -2 13 -5 14 -15 4z"/>
<path d="M3094 4528 c-87 -73 -177 -143 -290 -228 -19 -14 -75 -54 -125 -90
-51 -36 -113 -80 -138 -98 -25 -18 -77 -55 -116 -82 -38 -27 -108 -77 -155
-111 -142 -104 -409 -286 -535 -364 -27 -16 -56 -35 -64 -40 -9 -6 -38 -24
-66 -40 -90 -53 -340 -208 -345 -214 -6 -7 -31 -22 -84 -51 -22 -12 -68 -43
-104 -68 -35 -26 -74 -54 -88 -63 -13 -9 -42 -32 -63 -51 -22 -19 -47 -38 -55
-41 -9 -4 -13 -13 -10 -22 7 -17 20 -20 29 -5 3 6 13 10 21 10 9 0 40 11 70
25 30 14 58 25 62 25 5 0 30 11 58 24 27 13 83 38 124 55 41 18 84 37 95 43
11 6 67 36 125 66 58 30 112 60 120 67 8 7 22 15 30 18 8 3 47 26 85 51 39 25
91 55 118 67 26 12 47 25 47 29 0 4 11 12 25 18 14 7 31 17 38 22 7 6 48 34
92 63 136 91 176 119 235 166 32 25 101 79 154 120 53 41 96 77 96 81 0 4 12
13 28 19 15 6 41 24 57 39 17 15 46 40 65 56 129 104 192 163 428 393 127 125
168 174 154 187 -10 11 -18 6 -118 -76z"/>
<path d="M805 2940 c-10 -11 -25 -20 -34 -20 -14 0 -14 -2 -1 -10 10 -6 16 -6
18 0 2 6 10 10 18 10 8 0 14 5 14 10 0 6 7 10 16 10 8 0 12 5 9 10 -9 15 -20
12 -40 -10z"/>
</g>
</svg>
