<svg xmlns="http://www.w3.org/2000/svg" width="1493.333" height="1493.333" viewBox="0 0 1120 1120" preserveAspectRatio="xMidYMid meet" xmlns:v="https://vecta.io/nano"><path d="M328.7 315.6c-.1.1-6 .5-13.2.8-7.1.3-14.8.8-17 1.1-2.2.2-8.3.9-13.5 1.5l-15.2 1.7c-3.1.2-11.6 1.6-19 2.9l-17 2.9c-5.9.9-25.5 6.9-34.3 10.5-27.2 11-47.2 23.1-62.9 37.9-9.6 9.1-11.3 14.3-6.2 19 2.5 2.3 11.1 5.9 13.6 5.6.8-.1 2-.3 2.7-.3 2.8-.4-.4-4-6-6.7-9.5-4.6-9.2-5.4 6.8-18.8 12.2-10.2 27.3-18.4 55.5-30 14-5.8 35.1-11.5 52.5-14.1 9.1-1.3 17.5-2.7 21.5-3.6 2.5-.5 7.8-1.1 11.8-1.4s8.9-.8 11-1.1l7.7-1.1c2.2-.3 10.2-.8 17.7-1.1 28-1.1 49.4 6.2 47.2 16.1-.3 1.7-1.8 5.1-3.2 7.5-2.5 4.2-17.7 21.1-21.7 24.1-1.1.8-3.8 3.1-6 5.1l-9.4 8.5-8.2 7.4c-1.5 1.4-4.4 3.8-6.5 5.5-2.1 1.6-4.2 3.5-4.8 4-.6.6-4.7 4-9.1 7.5-10.3 8.4-12.5 10.6-11.7 11.6.4.4.2.4-.5.1-.6-.4-1.8 0-2.6.8-.9.8-2 1.5-2.4 1.5-1.3 0-5.3 4.8-5.3 6.3 0 .8-.4.7-1-.3-.9-1.3-1.4-.7-1.1 1.2 0 .4-.5.5-1.3.2-.7-.3-2.2.6-3.2 1.9-1.1 1.3-4 3.7-6.4 5.2-2.5 1.5-5.4 3.8-6.5 5-2.7 2.8-10.3 8.7-14.2 11-1.8 1-3 2.2-2.7 2.7.3.4-.2.8-1.1.8-.8 0-1.8.7-2.1 1.5-.4.8-1.2 1.5-2 1.5s-1.9.9-2.6 2-1.8 2-2.5 2-1.3.4-1.3 1c0 .5-.5 1-1.1 1-1.3 0-16.9 12-16.9 13 0 .4-1.3 1.3-2.9 2-1.6.6-3.2 1.8-3.4 2.4-.3.7-2.7 2.6-5.4 4.1-2.6 1.5-6.7 4.5-9.1 6.7-2.3 2.1-5.4 4.3-6.8 4.8-1.5.6-2.2 1.4-1.8 2.2.4.6.3.8-.4.4-.6-.3-1.7.2-2.4 1.1-.7 1-1.9 1.9-2.7 2.1-.7.1-1.9.8-2.6 1.5s-3.1 2.3-5.3 3.7c-2.3 1.4-4.2 3.1-4.2 3.8s-.4 1.1-.9.7c-.5-.3-1.7.3-2.7 1.2-1 1-2 1.8-2.3 1.8s-3.3 1.8-6.5 4l-9 6c-1.7 1-3.5 2.4-4.1 3-.5.6-2.7 2.2-4.7 3.6-2.1 1.3-3.8 2.8-3.8 3.2 0 .5-.3.6-.8.3-.4-.2-2.5.9-4.7 2.5-2.2 1.5-5.6 3.8-7.5 4.9s-5.5 3.4-8 5-6.2 3.9-8.3 5c-2 1.1-3.7 2.5-3.7 3 0 .6-.3.9-.7.8-.9-.2-9.5 4.1-10.3 5.2-.3.3-2.4 1.7-4.7 3s-3.9 2.8-3.6 3.3c.3.6.1.7-.4.4-.6-.4-3.9.9-7.3 2.8s-7.3 3.8-8.7 4.1c-2.1.6-2.3.3-1.9-1.7 1.3-7.4 3-12.1 6.1-18.2.8-1.6 1.5-3.5 1.5-4.3s.5-1.4 1-1.4c.6 0 1-.9 1-1.9 0-1.1.5-2.3 1-2.6 1.6-1 1.2-2.8-.5-2.1-1.3.4-1.4.2-.5-1.4.6-1.1 1.3-2 1.6-2s.2.4-.1 1 .1.7 1 .4c.9-.4 1.3-.9 1.1-1.2-.3-.3.2-1.1 1.2-1.9.9-.8 1.1-1.2.5-.8-.7.3-1.3.1-1.3-.6 0-.8-.6-.6-1.8.4-1 1-2.4 1.7-3.1 1.7-.8 0-1.1.6-.7 1.6.3.8.2 1.2-.4.9-.9-.6-2.1.5-7.5 6.7-8.1 9.5-12.7 16-16.6 23.4-2 4-2.4 5.6-1.6 7 .9 1.7.9 1.7-.6.5-1.8-1.4-1.7-1.6-2.2 5.1 0 .9-.4 2-.8 2.4s.1 1.3 1.1 2.1c.9.8 1.1 1.2.4.8-1.5-.8-1.5.6-.1 3.9.7 1.4 1.5 2.3 2 2.1.4-.3 1 .4 1.4 1.5s1 1.8 1.5 1.5c.4-.3 1.3.2 2 1 1.3 1.5 9 2.1 10.4.8.3-.4 1.7-.8 2.9-1s3.8-1.4 5.8-2.8c2-1.3 5.3-3.1 7.3-3.9s3.9-2.2 4.2-3.1c.3-.8 1.2-1.5 1.9-1.5s3.5-1.7 6.2-3.8c2.6-2.1 7.5-5.6 10.8-7.8 3.3-2.1 6.2-4.2 6.3-4.7.2-.4.9-.7 1.5-.7.7 0 3-1.6 5.2-3.5 4.9-4.3 5.1-4.4 10.1-7.2 2.1-1.2 3.8-2.6 3.7-3.1-.1-.6.9-1.3 2.3-1.6 1.4-.4 2.2-1.1 1.9-1.6-.3-.6.3-1 1.5-1 1.1 0 2.3-.7 2.6-1.5.4-.8 1.2-1.5 1.9-1.5s1.8-.7 2.5-1.5c.7-.9 2.8-2.3 4.6-3.1 1.9-.9 3.4-2 3.4-2.5s.6-.9 1.3-.9c.6 0 2.9-1.6 4.9-3.5 2.1-2 4.1-3.6 4.5-3.5 1.3 0 9.3-6.1 9.3-7.1 0-.6.5-.7 1-.4.6.3 1.3-.1 1.6-.9.3-.9 1.3-1.6 2.1-1.6s2.7-1.3 4.1-2.8c1.5-1.6 3.5-3.1 4.5-3.5s1.5-1.1 1.2-1.7c-.3-.5 0-.8.7-.5s3.3-1.3 5.7-3.4c2.5-2.2 4.8-3.8 5.3-3.5.4.3 1.3-.4 2-1.6.7-1.1 1.6-2 2-2 1.1 0 5.4-4.3 5.1-5.1-.1-.4.8-.4 2-.1s1.9.1 1.5-.3 2.2-2.7 5.7-5c3.6-2.3 6.3-4.4 6-4.6-.2-.3 2.2-2.2 5.4-4.2 3.2-2.1 8-5.8 10.7-8.3 7.2-6.6 9-8.1 11.8-9.9 1.4-1 2.4-2.1 2.1-2.5s.5-1.1 1.8-1.4c1.2-.3 4.8-3.1 8-6.1s6.2-5.5 6.7-5.5c.4 0 2-1.6 3.6-3.5 1.5-1.9 3.2-3.5 3.8-3.5 1.7 0 11.8-9.9 12-11.7.2-.9 1.2-1.7 2.4-1.8s3.4-1.3 4.9-2.6l5.4-4.9c1.6-1.4 4.3-3.9 6.1-5.5 1.9-1.7 3.6-3 3.9-3 1.6 0 10.8-8.9 10.2-9.8-.4-.6 0-.8 1-.4.9.3 1.7.3 1.9-.1s3-2.9 6.3-5.6 6.8-5.8 7.8-6.9c1-1.2 3.3-3.1 5-4.4 6.3-4.6 18.7-16.7 18.7-18.2 0-.8.3-1.2.6-.8.7.7 4.3-2.8 9.5-9.3 10.4-13.1 13.4-20.8 11-27.8-.8-2-2.3-4.8-3.5-6-2.5-2.8-10.7-7.2-13.4-7.2-1 0-2.2-.4-2.8-1-1.3-1.3-28.5-4.5-29.7-3.4zm-16.3 92.6c-.5.8-.1.9 1.2.4 1.4-.5 1.6-.4.7.5-1.3 1.3-3.7.3-2.8-1.2.4-.5.8-.9 1.1-.9s.2.5-.2 1.2zm625.1-78.8c-18.4 6.1-26.3 9.5-42.6 18.4-12.4 6.7-26.3 15.1-33 19.9-2.6 1.8-4.9 3.3-5.3 3.3-1.8 0-29.5 20.3-36.5 26.7-2 1.8-3.9 3.3-4.3 3.3-.9 0-11.1 12.7-12.7 15.8-1.7 3.3-2.4 6.1-2.3 10.5 0 7.4 7.9 12.8 21.2 14.7 6.8 1 59.9 1.4 66.5.6 1.7-.2 14.7-.7 29-1l36.5-1.1c5.8-.3 18.6-.7 28.5-1l23-1c30.2-2.5 61.6-2.5 70.1 0 3 .8 5.4 2 5.4 2.5 0 1.2-7.1 7.2-11.7 9.6-2.1 1.2-9.9 5.4-17.3 9.4s-13.6 7.7-13.8 8.2c-.2.4-.9.8-1.6.8s-7.1 2.9-14.2 6.4-13.9 6.7-15.1 7c-1.3.4-2.3 1.2-2.3 1.7s-.3.8-.7.7c-.5-.1-1.9.4-3.3.9-6.1 2.6-12.1 5.4-20.5 9.3l-16.5 7.7c-4.1 2-7.7 3.8-8 4.2s-1.6.8-2.9.8c-1.3.1-3.1.8-4 1.7-.9.8-3.5 1.9-5.8 2.5-2.4.7-4.3 1.6-4.3 2.1 0 .6-.6 1-1.4 1-1.2 0-5.1 1.5-15.1 6-2.2 1-5.8 2.4-8 3.3-4 1.5-16.8 7.3-23.5 10.5-1.9.9-3.8 2.1-4.2 2.7-.4.5-.8.6-.8.2s-2 .4-4.5 1.9c-2.5 1.4-4.5 2.3-4.5 2 0-.7-6.5 2.3-11 5-1.9 1.2-5.2 2.5-7.2 2.8-2.2.4-4.5 1.7-5.7 3.2-1.1 1.4-2.5 2.3-3.1 1.9s-1.8-.1-2.6.6c-.8.6-1.7.9-2.1.6-.6-.7-5.6 1.8-8.7 4.3-1 .8-2 1.4-2.2 1.2-1.1-.7-3.4 0-4.8 1.4-1 .9-1.6 1.1-1.6.4s-.6-.5-1.6.4c-.8.9-2 1.6-2.5 1.6-.6 0-.8.4-.5.8.2.4-.7.7-2.2.6-1.4 0-3.5.8-4.6 1.8s-3 1.8-4.3 1.8-2.3.4-2.3.9-1.3 1.2-3 1.6c-1.6.4-3 1.1-3 1.5 0 .5-.6.7-1.4.4s-1.7-.1-2.1.5c-.3.6-1.3 1.1-2.1 1.1s-4.5 1.4-8.2 3.2c-3.7 1.7-6.9 3.2-7.2 3.2-3.5.8-11.8 5.1-11.3 5.9.4.6 0 .8-1.1.4-1-.4-1.9-.1-2.2.6-.2.7-1.8 1.2-3.4 1.1-1.7-.1-3 .3-3 .9s-.3.8-.6.4c-.7-.6-3.9 2.2-3.9 3.4 0 .4-.4 1.1-.9 1.6s-.6.3-.2-.5c.5-.8-.1-1.2-1.9-1.2-1.5 0-2.4.4-2 1 .4.7-.3.9-2 .6-1.8-.3-3.3.2-4.6 1.5-1.1 1.1-2.9 2.1-4 2.2-1 .1-1.9.5-1.9.9s-.6.5-1.3.2c-.7-.2-2.6.2-4.2 1s-3.2 1.3-3.7 1c-.4-.3-.8-.2-.8.3 0 1-4.5 3.1-8.8 3.9-1.7.4-3.2 1-3.2 1.5s-1.1.9-2.5.9-3.3.8-4.3 1.8-2.4 1.6-3.2 1.4c-.7-.3-1 0-.6.6s-.1 1.1-1.1 1.1c-3.9.1-5.3.5-5.3 1.3 0 .5-.4.7-.9.4s-2.5.5-4.4 1.8-3.8 2.2-4.1 1.8c-.3-.3-.6.1-.6.8s-.3 1-.6.7c-.4-.3-1.5-.2-2.6.4s-2.9 1.2-4.1 1.5c-1.2.2-2.3.8-2.5 1.4s-.8.7-1.4.4c-.5-.3-2.4.9-4.1 2.8-2.6 2.8-3.5 3.3-4.9 2.5-1.2-.8-3.3-.3-8.4 2-3.8 1.7-6.8 3.6-6.7 4.2.2.6-.4.8-1.3.4-1.3-.5-1.5-.2-1 1.4.6 1.8.3 2-2.4 1.8-2.4-.2-3.4.2-4 1.9-.8 2-.9 2-1 .1s-.2-1.8-1 .3c-.5 1.2-.7 3-.4 4 .5 1.4.4 1.5-.5.2s-1.1-1.3-1.1 0c0 .8 1 2.1 2.3 2.9 2 1.3 2.1 1.3.9-.2-1-1.1-1-1.7-.1-2.2.6-.4 1.5-.2 1.9.5.6 1 .9.9 1.3-.1.4-1.2.7-1.1 1.6.1s1.1 1 1.2-1c0-2.2.1-2.3.8-.6.5 1.4 1 1.6 1.5.8.4-.7 1.2-1 1.7-.7.5.4.9.1.9-.5s.4-.9.9-.6 1.4-.1 2.1-.9c1-1.2 1.6-1.3 2.6-.4 1.2 1 1.7.6 1.6-1.1 0-.3 1.3-.7 3-.8 1.7-.2 3.7-1 4.3-1.9.8-1 1.7-1.3 2.6-.8 1.1.7 1.1.5-.1-1-1.4-1.7-1.4-1.8.7-.7 2.7 1.5 4.9.7 5.6-1.9.3-1.1 1.4-1.9 2.7-1.9 1.4 0 1.9.4 1.4 1.2-.6 1-.5 1 .8.1.8-.7 1.8-1 2.1-.6.4.3.7.1.7-.5 0-.7 1-1.2 2.3-1.2 1.4 0 2.7-.9 3.3-2.3.6-1.2.9-1.6.7-1-.3 1.5 4.3 1.8 5.2.3.3-.5 1.2-.7 2-.3.8.3 1.5 0 1.5-.7 0-.6.5-.8 1-.5.6.3 1 .2 1-.4 0-.5.9-1.3 2-1.6s2-1.3 2-2.2c0-1 .5-1.3 1.8-.8 2.9 1.1 3.4 1.1 3.9-.5.3-1.2.2-1.2-.5-.2s-1.1 1-2.2-.3-1-1.5.2-1c.9.4 2.3-.1 3.2-1.1 1.6-1.5 1.6-1.4 1.2 1.1-.5 2.5-.4 2.6 1.2 1.3 2.1-1.9 8.4-5 7.7-3.8-.3.4.6.3 1.9-.3 1.3-.7 2.3-1.4 2.1-1.7s.4-.6 1.3-.7c4.3-.5 8.2-1.6 8.3-2.4l.4-1.9c.1-.6.3-1.3.4-1.7 0-.4.6-.2 1.3.5.8.8 2 .7 4.6-.3 1.9-.8 3.8-1.2 4.3-.9s.9 0 .9-.6c0-.7.7-.9 1.6-.6 1.1.4 1.5 0 1.4-1.7-.3-3.5-.1-3.9 1.4-2.5.8.7 1.2 1.6.9 2-.2.5.1.8.6.8 1.1 0 1.4-1.1.9-2.8-.2-.4-.6-.6-1-.5-.5.2-.8-.2-.8-.8s.6-.9 1.4-.6c.7.3 1.9 0 2.5-.6.9-.9 1.1-.7.6.8-.6 1.9-.6 1.9.8.2 1.5-1.8 5.7-2.4 5.7-.7 0 .5.7.7 1.5.4.8-.4 1.3-1 1-1.4s.3-1.4 1.2-2.1c1.4-1.2 1.6-1.2.9.1-.4.8 0 .6.8-.4.9-1.1 1.6-1.5 1.6-.9s.8 1 1.8.8c.9-.2 2.3-.4 3-.4.6-.1 1.2-.8 1.2-1.7 0-.8.5-1.2 1-.9.6.4.7 1.2.4 1.8-.3.7.5-.1 2-1.7 1.5-1.7 3.1-2.6 4.1-2.3 1 .4 1.5 0 1.6-1.1 0-1.1.2-1.2.6-.4.4 1 .8 1 1.9.1.8-.7 2.5-1.3 3.7-1.3 2.7-.2 8.7-2.6 8.7-3.6 0-.3.6-.7 1.3-.7.6 0 3.4-1 6.2-2.3 2.7-1.2 5.6-2.3 6.3-2.4.8-.2 2-1 2.7-1.9.6-.9 2.1-1.5 3.2-1.4 1.2 0 3.6-.6 5.5-1.5 1.8-.9 4.8-2.2 6.6-2.8 1.7-.7 3.2-1.7 3.2-2.2s.5-.6 1-.3c.6.3 1 .1 1-.5s.5-.8 1-.5c.6.3 1 .2 1-.4 0-.5.9-.8 1.9-.6 2.3.4 6.4-2.8 5.3-4.1-.4-.4.1-.2 1.1.5 1.2 1 1.7 1 1.7.2 0-.7.5-.9 1-.6.6.3 1 .1 1-.5 0-.7.7-1 1.5-.6.8.3 1.5.1 1.5-.5s.5-.7 1-.4c.6.3 4.2-1 8.1-2.9 4-2 8.3-3.6 9.6-3.6s2.2-.4 1.9-.8c-.2-.4 2.3-1.8 5.7-3.1 7.6-2.9 12.6-5 14.9-6.2 1-.5 2.7-.9 3.8-.9s2-.4 2-.9 1.4-1.2 3-1.6c1.7-.4 3-1.1 3-1.6s.9-.9 2-.9 2-.4 2-.9 1.1-.9 2.4-.9c1.4 0 3.2-.7 4.1-1.6s2.1-1.6 2.6-1.6c1.8 0 9.9-4 9.9-4.9 0-.5 1.5-1.3 3.3-1.6 1.7-.4 3.9-1.3 4.7-2 1.4-1.2 4.2-2.3 6.5-2.6.6-.1 2.2-1 3.7-2 1.4-1 3.6-1.9 4.7-1.9 1.2 0 2.1-.4 2.1-.9 0-.4 2.5-1.6 5.5-2.6 3.1-.9 6.1-2.2 6.8-2.9a7.76 7.76 0 0 1 2.7-1.4c.8-.2 1.7-.7 2-1.1.3-.5 1.2-.8 2.1-.8s5.1-1.6 9.3-3.6c4.1-2.1 7.8-3.7 8.2-3.7.3 0 2-1 3.7-2.2 1.8-1.3 3.4-2.3 3.7-2.3.3-.1 1.4-.6 2.5-1.2s2.2-1.1 2.5-1.1c2.1-.2 22.6-10 38-18.3l14.4-7.6c2.7-1.3 7.3-4.2 10.2-6.4 2.9-2.1 5.6-3.9 5.9-3.9.4 0 1.2-.6 2-1.3.7-.6 2.5-2.1 3.9-3.1 3.4-2.5 8.6-10.9 8.1-13.2-.2-1.1-.4-2.5-.4-3.1-.2-2.4-6.2-7.1-10.9-8.4-3.1-.9-10.6-1.4-21.7-1.4-17.2 0-59.7 1.3-62.5 2-.8.2-16.6.7-35 1.1l-37.5.9c-2.2.2-19.7.5-39 .8-49 .7-67.7-.8-73.8-6.2-5.1-4.4 6.3-20.4 24.6-34.5 5.6-4.3 8.1-6.5 13.3-11.3 1.3-1.2 2.4-1.9 2.4-1.6 0 .4 1-.2 2.3-1.3 1.2-1.1 3.9-2.8 5.9-3.8s4.6-2.7 5.7-3.7c1.1-1.1 2.4-1.9 2.8-1.9 1.6-.1 13.3-7.7 12.8-8.3-.3-.4-.2-.5.2-.2.3.3 2.5-.6 4.7-1.9 11.7-6.8 13.8-7.9 26.1-13.6 9.3-4.3 11.1-4.9 25.5-9.7 16.3-5.4 24.6-6.2 28.1-2.6l2.2 2.2-3 6.8c-4.1 9.2-4.4 10.1-3.7 12.9.9 3.5 3.9 3.1 5.3-.9 1.1-2.9 2.2-5.1 6.9-14.1 3.4-6.6.7-12.5-6.8-15-7.6-2.5-13.2-1.9-27.5 2.8zm-99.5 240c-.7.7-1.3.7-2 0-.6-.6-.3-1 1-1s1.6.4 1 1zM692 631c0 .5-.5 1-1.1 1-.5 0-.7-.5-.4-1 .3-.6.8-1 1.1-1 .2 0 .4.4.4 1zm-13.6 5.5c-.4.8-1.1 1.5-1.6 1.5-.6 0-.5-.6.2-1.5.7-.8 1.4-1.5 1.6-1.5s.1.7-.2 1.5zm-23.4 7.3c0 1.1-.3 1.2-1.3.3-.8-.6-1.6-.8-1.9-.5s-.8.1-1.1-.3c-.3-.5.5-.9 1.9-.9s2.4.6 2.4 1.4zm4-.2c0 .2-.7.4-1.5.4s-1.5-.4-1.5-1c0-.5.7-.7 1.5-.4.8.4 1.5.8 1.5 1zM368.8 457.2c-.8 1.9 1.4 9 6.2 20.3 9.6 22.5 14.9 62.6 11.6 87.5-.5 4-4.2 15.9-5.7 18.5-.4.5-.9 2.3-1.3 3.9-.6 2.6-.5 2.8.8 1.7.9-.8 1.6-2 1.6-2.8 0-.7.6-2.4 1.4-3.6s2.5-6 3.8-10.7c2.1-7.8 2.3-10.4 2.2-33 0-31.4-1.8-42.5-10.1-63.5l-5.4-14c-1.7-4.9-4.2-6.9-5.1-4.3zm-288 73.5c.7.3 1.6.2 1.9-.1.4-.3-.2-.6-1.3-.5-1.1 0-1.4.3-.6.6zm294.9 63.8c-.9 1.9-1.3 3.5-.8 3.5.7 0 1.5-1.4 3.9-6.3.2-.4 0-.7-.5-.7s-1.7 1.6-2.6 3.5zm-3.7 7.1c0 .8.5 1.2 1 .9.6-.4.8-1.1.5-1.6-.9-1.4-1.5-1.1-1.5.7zm391 .8c0 .2.7.6 1.5 1 .8.3 1.5.1 1.5-.4 0-.6-.7-1-1.5-1s-1.5.2-1.5.4zm-393.5 2.7c-.4.6-.5 1.2-.2 1.5.2.3.7-.2 1-1.1.7-1.7.1-2-.8-.4zM359.3 618c-2.5 3.1-2.8 4-1.3 4 .6 0 1.4-.8 1.7-1.8.4-.9 1.3-2.2 2.1-2.8s1.1-1.3.6-1.6-1.9.7-3.1 2.2zM341 640c0 .7-.3 1.1-.6.8s-1.7.5-3 1.9c-1.7 1.7-2.2 2.9-1.6 3.5.7.7 1.4.2 2.3-1.3.7-1.3 1.9-2.9 2.8-3.6.9-.6 1.3-1.5.8-1.9-.4-.4-.7-.1-.7.6zm300.3 2.3c-1.3.5-2.5 1.8-2.8 2.7-.4 1.3-1.2 1.6-2.7 1.2-1.5-.3-1.9-.2-1.4.7.4.6 1.2.9 1.7.6.5-.4.9-.1.9.4a1.11 1.11 0 0 1-1.1 1.1c-.5 0-.7.4-.4 1 1 1.6 2.5 1.2 2.5-.8 0-1.4.2-1.4.9-.3.5.8 1.7 1.6 2.5 1.7.9.1 1.4-.2 1-.7-.3-.5-.9-.7-1.3-.4-.5.2.1-1.4 1.2-3.6 2.2-4.5 2.1-5.1-1-3.6zm-312 7.8c-.7.7-1.3 1.9-1.3 2.5 0 .7-.8 1.5-1.9 1.9-2.7.8-5.5 4.1-4.1 5 1.5.9 9.2-7 8.8-9-.2-1.3-.5-1.4-1.5-.4zm-19.9 17.1c-8.7 7.3-17.7 14.3-29 22.8l-12.5 9-13.8 9.8-11.6 8.2-15.5 11.1c-14.2 10.4-40.9 28.6-53.5 36.4-2.7 1.6-5.6 3.5-6.4 4-.9.6-3.8 2.4-6.6 4-9 5.3-34 20.8-34.5 21.4-.6.7-3.1 2.2-8.4 5.1-2.2 1.2-6.8 4.3-10.4 6.8-3.5 2.6-7.4 5.4-8.8 6.3-1.3.9-4.2 3.2-6.3 5.1-2.2 1.9-4.7 3.8-5.5 4.1-.9.4-1.3 1.3-1 2.2.7 1.7 2 2 2.9.5.3-.6 1.3-1 2.1-1 .9 0 4-1.1 7-2.5s5.8-2.5 6.2-2.5c.5 0 3-1.1 5.8-2.4 2.7-1.3 8.3-3.8 12.4-5.5l9.5-4.3 12.5-6.6c5.8-3 11.2-6 12-6.7a11.94 11.94 0 0 1 3-1.8c.8-.3 4.7-2.6 8.5-5.1 3.9-2.5 9.1-5.5 11.8-6.7 2.6-1.2 4.7-2.5 4.7-2.9s1.1-1.2 2.5-1.8c1.4-.7 3.1-1.7 3.8-2.2.7-.6 4.8-3.4 9.2-6.3 13.6-9.1 17.6-11.9 23.5-16.6l15.4-12c5.3-4.1 9.6-7.7 9.6-8.1s1.2-1.3 2.8-1.9c1.5-.6 4.1-2.4 5.7-3.9l6.5-5.6c12.9-10.4 19.2-16.3 42.8-39.3 12.7-12.5 16.8-17.4 15.4-18.7-1-1.1-1.8-.6-11.8 7.6zM80.5 826c-1 1.1-2.5 2-3.4 2-1.4 0-1.4.2-.1 1 1 .6 1.6.6 1.8 0s1-1 1.8-1 1.4-.5 1.4-1c0-.6.7-1 1.6-1 .8 0 1.2-.5.9-1-.9-1.5-2-1.2-4 1z"/></svg>